<?xml version="1.0" encoding="UTF-8"?>
<svg id="_レイヤー_1" xmlns="http://www.w3.org/2000/svg" width="126" height="114" version="1.1" viewBox="0 0 126 114">
  <!-- Generator: Adobe Illustrator 29.7.1, SVG Export Plug-In . SVG Version: 2.1.1 Build 8)  -->
  <path d="M119.992,1.417h-10.037c-7.696,0-14.546,4.891-17.043,12.17l-8.035,23.416c-.476.203-1.047.114-1.435-.274l-5.437-5.437c1.391-.888,2.32-2.436,2.32-4.209,0-2.762-2.238-5-5-5H13.942c-3.959,0-7.645,1.775-10.112,4.872-2.467,3.096-3.375,7.085-2.492,10.943l7.203,31.474c1.354,5.914,6.537,10.045,12.604,10.045h52.761l2.654,6.818c-1.955,1.687-3.463,3.867-4.344,6.348h-31.767c-2.065-5.816-7.608-10-14.125-10-8.271,0-15,6.729-15,15s6.729,15,15,15c6.517,0,12.06-4.184,14.125-10h31.767c2.065,5.816,7.608,10,14.125,10,8.271,0,15-6.729,15-15s-6.729-15-15-15c-.156,0-.308.019-.464.023l-3.229-8.297,19.723-57.478c1.111-3.238,4.159-5.415,7.584-5.415h10.037c2.762,0,5-2.238,5-5s-2.238-5-5-5ZM26.325,102.583c-2.757,0-5-2.243-5-5s2.243-5,5-5,5,2.243,5,5-2.243,5-5,5ZM91.342,97.583c0,2.757-2.243,5-5,5s-5-2.243-5-5,2.243-5,5-5,5,2.243,5,5ZM17.834,65.153l-2.292-10.017c.478-.207,1.051-.121,1.441.27l4.375,4.375c.51.51.51,1.338,0,1.848l-3.524,3.524ZM31.296,32.083c-.055.093-.1.19-.18.27l-4.375,4.375c-.51.51-1.337.51-1.848,0l-4.375-4.375c-.08-.08-.125-.178-.18-.271h10.958ZM50.812,32.083c-.055.093-.1.19-.18.27l-4.375,4.375c-.51.51-1.337.51-1.848,0l-4.375-4.375c-.08-.08-.125-.177-.18-.27h10.957ZM70.329,32.083c-.055.093-.1.19-.18.27l-4.375,4.375c-.51.51-1.337.51-1.848,0l-4.375-4.375c-.08-.08-.125-.177-.18-.27h10.958ZM74.609,66.928l-5.3-5.3c-.51-.51-.51-1.337,0-1.848l4.375-4.375c.51-.51,1.337-.51,1.848,0l2.257,2.257-3.18,9.267ZM70.149,51.87l-4.375,4.375c-.51.51-1.337.51-1.848,0l-4.375-4.376c-.51-.51-.51-1.337,0-1.848l4.375-4.375c.51-.51,1.337-.51,1.848,0l4.375,4.375c.51.51.51,1.338,0,1.848ZM40.034,50.022l4.375-4.375c.51-.51,1.337-.51,1.848,0l4.375,4.375c.51.51.51,1.337,0,1.848l-4.375,4.375c-.51.51-1.337.51-1.848,0l-4.375-4.375c-.51-.51-.51-1.337,0-1.848ZM36.499,46.487c-.51.51-1.337.51-1.848,0l-4.375-4.375c-.51-.51-.51-1.337,0-1.848l4.375-4.375c.51-.51,1.337-.51,1.848,0l4.375,4.375c.51.51.51,1.337,0,1.848l-4.375,4.375ZM49.792,40.264l4.375-4.375c.51-.51,1.337-.51,1.848,0l4.375,4.375c.51.51.51,1.338,0,1.848l-4.375,4.375c-.51.51-1.337.51-1.848,0l-4.375-4.375c-.51-.51-.51-1.337,0-1.848ZM49.792,59.78l4.375-4.375c.51-.51,1.337-.51,1.848,0l4.375,4.375c.51.51.51,1.337,0,1.848l-4.375,4.375c-.51.51-1.337.51-1.848,0l-4.375-4.375c-.51-.51-.51-1.337,0-1.848ZM11.881,39.143l3.254-3.254c.51-.51,1.337-.51,1.848,0l4.375,4.375c.51.51.51,1.338,0,1.848l-4.375,4.375c-.51.51-1.337.51-1.848,0l-2.04-2.04-1.214-5.304ZM20.518,51.87c-.51-.51-.51-1.337,0-1.848l4.375-4.375c.51-.51,1.337-.51,1.848,0l4.375,4.375c.51.51.51,1.337,0,1.848l-4.375,4.376c-.51.51-1.337.51-1.848,0l-4.375-4.375ZM30.276,59.781l4.375-4.376c.51-.51,1.337-.51,1.848,0l4.375,4.375c.51.51.51,1.338,0,1.848l-4.375,4.375c-.51.51-1.337.51-1.848,0l-4.375-4.375c-.51-.51-.51-1.337,0-1.848ZM40.156,69.417l4.254-4.254c.51-.51,1.337-.51,1.848,0l4.254,4.254h-10.355ZM59.672,69.417l4.253-4.254c.51-.51,1.337-.51,1.848,0l4.253,4.254h-10.354ZM79.595,52.398l-.528-.528c-.51-.51-.51-1.337,0-1.848l2.044-2.044-1.517,4.42ZM79.907,42.112l-4.375,4.375c-.51.51-1.337.51-1.848,0l-4.375-4.375c-.51-.51-.51-1.337,0-1.848l4.375-4.375c.51-.51,1.337-.51,1.848,0l4.375,4.375c.51.51.51,1.338,0,1.848ZM20.68,69.377l4.214-4.214c.51-.51,1.337-.51,1.848,0l4.253,4.254h-9.849c-.159,0-.313-.015-.466-.04Z"/>
</svg>