<?xml version="1.0" encoding="UTF-8"?>
<svg id="_レイヤー_1" data-name="レイヤー_1" xmlns="http://www.w3.org/2000/svg" width="386" height="100" version="1.1" viewBox="0 0 386 100">
  <!-- Generator: Adobe Illustrator 29.7.1, SVG Export Plug-In . SVG Version: 2.1.1 Build 8)  -->
  <path d="M10.691,43.444L49.08,4.785h13.517L20.423,46.823l43.526,48.122h-13.788L13.259,53.582l-2.568,2.569v38.794H.688V4.785h10.003v38.659ZM118.827,14.247h-36.767v26.764h35.686v9.462h-35.686v35.01h36.767v9.462h-46.77V4.785h46.77v9.462ZM134.505,94.945V1l70.29,73.669V4.785h10.003v94.215L144.507,25.331v69.614h-10.003Z"/>
  <g>
    <path d="M285.846,73.357c.504.126.933.238,1.3.342-1.06,1.03-1.802,3.029-2.191,4.304-.257.84-.514,1.691-.754,2.49-.161-.625-.575-1.13-1.211-1.437-.978-.473-1.954-.915-2.999-1.195v-5.658c1.143.177,3.571.583,5.855,1.154Z" fill="#773b12"/>
    <path d="M237.257,81.519c-.232-1.014.372-1.307.571-1.403,1.506-.728,3-1.382,4.705-1.382h35.239c1.705,0,3.198.654,4.705,1.382.199.096.804.388.571,1.403-.29,1.268-1.653,2.559-2.699,2.559h-40.393c-1.047,0-2.409-1.292-2.699-2.559Z" fill="#b29052"/>
    <path d="M249.515,63.593h21.275c5.099,0,8.023,1.975,8.023,5.419v8.612c-.337-.044-.683-.068-1.041-.068h-35.239c-.357,0-.703.024-1.041.068v-8.612c0-3.444,2.924-5.419,8.023-5.419Z" fill="#b29052"/>
    <path d="M234.459,73.357c2.285-.571,4.712-.977,5.855-1.154v5.658c-1.045.28-2.021.722-2.999,1.195-.636.307-1.05.812-1.211,1.437-.24-.798-.497-1.65-.754-2.49-.39-1.275-1.132-3.274-2.191-4.304.367-.104.796-.216,1.3-.342Z" fill="#773b12"/>
    <path d="M236.694,94.742c-.093.071-.585.224-1.444.224h-.011c-.747-.001-1.213-.119-1.385-.198.018-.35.536-1.244,1.178-2.042.417.077.864.115,1.345.115h2.537c-.554.526-1.317,1.208-2.221,1.901Z" fill="#edab54"/>
    <path d="M286.452,94.768c-.172.079-.638.197-1.386.198h-.011c-.859,0-1.351-.154-1.444-.224-.902-.692-1.665-1.374-2.22-1.901h2.537c.481,0,.928-.039,1.345-.115.644.798,1.162,1.694,1.179,2.042Z" fill="#edab54"/>
    <path d="M288.473,87.136c-.61,3.216-1.927,4.527-4.546,4.527h-47.55c-2.619,0-3.936-1.312-4.546-4.527-.573-3.022-1.766-9.309-1.073-11.682.168-.575.298-.909.92-1.228.078-.021.143-.011.202.008.597.184,1.553,1.527,2.344,4.113.96,3.141,1.932,6.453,1.942,6.486l.124.423h47.725l.124-.423c.01-.033.982-3.345,1.942-6.486.79-2.586,1.747-3.93,2.344-4.113.059-.018.124-.028.202-.007.622.319.752.652.92,1.228.692,2.373-.5,8.661-1.073,11.682Z" fill="#b29052"/>
  </g>
  <path d="M238,5.72v20.455h-5.305V5.72h5.305ZM244.96,26.175V5.72h5.305l9.783,12.512V5.72h5.305v20.455h-5.305l-9.783-12.512v12.512h-5.305ZM280.654,10.228v15.947h-5.305v-15.947h-4.355v-4.508h14.015v4.508h-4.355ZM302.273,10.228h-6.317v3.404h5.98v4.509h-5.98v3.527h6.317v4.508h-11.623V5.72h11.623v4.508ZM317.206,5.72c1.533,0,3.496.246,4.999,1.81,1.166,1.196,1.748,2.974,1.748,4.6,0,1.748-.613,3.281-1.625,4.263-.797.767-1.871,1.227-2.821,1.411l6.409,8.372h-6.593l-5.091-7.851v7.851h-5.305V5.72h8.28ZM314.231,14.889h1.012c.797,0,1.932-.214,2.576-.828.398-.399.675-1.074.675-1.717,0-.613-.245-1.288-.706-1.717-.491-.49-1.38-.797-2.545-.797h-1.012v5.06ZM335.512,5.72v20.455h-5.305V5.72h5.305ZM360.29,23.599c-2.085,1.994-5.029,3.036-8.066,3.036s-5.98-1.043-8.065-3.036c-2.177-2.085-3.22-4.937-3.22-7.636,0-2.729,1.043-5.612,3.22-7.667,2.085-1.994,5.029-3.036,8.065-3.036s5.98,1.043,8.066,3.036c2.177,2.055,3.22,4.938,3.22,7.667,0,2.699-1.043,5.551-3.22,7.636ZM348.085,12.038c-1.104,1.073-1.625,2.576-1.625,4.017,0,1.81.858,3.067,1.625,3.803.981.951,2.361,1.625,4.14,1.625,1.809,0,3.159-.644,4.11-1.594.951-.951,1.656-2.361,1.656-3.925,0-1.595-.705-3.005-1.656-3.925-1.135-1.074-2.699-1.625-4.11-1.625-1.472,0-3.036.521-4.14,1.625ZM376.603,5.72c1.533,0,3.496.246,4.999,1.81,1.166,1.196,1.748,2.974,1.748,4.6,0,1.748-.613,3.281-1.625,4.263-.797.767-1.871,1.227-2.821,1.411l6.409,8.372h-6.593l-5.091-7.851v7.851h-5.305V5.72h8.28ZM373.628,14.889h1.012c.797,0,1.932-.214,2.576-.828.399-.399.675-1.074.675-1.717,0-.613-.245-1.288-.706-1.717-.491-.49-1.38-.797-2.545-.797h-1.012v5.06ZM234.044,48.128c1.135,1.074,2.852,2.086,4.692,2.086,1.073,0,1.717-.337,2.055-.706.307-.306.521-.766.521-1.288,0-.399-.153-.859-.583-1.227-.521-.46-1.319-.675-2.638-1.074l-1.38-.429c-.859-.276-2.116-.736-2.944-1.656-1.043-1.135-1.166-2.576-1.166-3.619,0-2.514.981-4.048,1.871-4.937,1.043-1.043,2.76-1.932,5.244-1.932,2.024,0,4.385.645,6.317,1.656l-2.116,4.14c-1.595-1.257-2.79-1.38-3.496-1.38-.521,0-1.227.123-1.748.614-.307.306-.521.644-.521,1.104,0,.368.061.644.276.92.153.184.521.552,1.779.92l1.625.49c1.288.399,2.637.859,3.711,2.024,1.043,1.104,1.318,2.239,1.318,3.649,0,1.871-.46,3.68-1.932,5.152-1.748,1.748-3.864,2.085-6.041,2.085-1.288,0-2.515-.123-4.017-.675-.337-.123-1.625-.614-3.098-1.625l2.269-4.294ZM258.791,41.443h7.667v-7.636h5.336v20.455h-5.336v-8.28h-7.667v8.28h-5.305v-20.455h5.305v7.636ZM297.184,51.686c-2.085,1.994-5.029,3.036-8.065,3.036s-5.98-1.043-8.066-3.036c-2.177-2.085-3.22-4.937-3.22-7.636,0-2.729,1.043-5.612,3.22-7.667,2.085-1.994,5.029-3.036,8.066-3.036s5.98,1.043,8.065,3.036c2.177,2.055,3.22,4.938,3.22,7.667,0,2.699-1.043,5.551-3.22,7.636ZM284.979,40.125c-1.104,1.073-1.625,2.576-1.625,4.017,0,1.81.859,3.067,1.625,3.803.981.951,2.361,1.625,4.14,1.625,1.809,0,3.159-.644,4.109-1.594.951-.951,1.656-2.361,1.656-3.925,0-1.595-.705-3.005-1.656-3.925-1.135-1.074-2.699-1.625-4.109-1.625-1.472,0-3.036.521-4.14,1.625ZM311.135,47.484v6.778h-5.305v-20.455h8.464c1.778,0,3.619.337,5.182,1.84,1.595,1.534,1.901,3.251,1.901,4.968,0,1.625-.215,3.527-1.809,5.091-1.595,1.564-3.496,1.778-5.091,1.778h-3.343ZM311.135,43.191h1.779c.552,0,1.595-.061,2.238-.644.644-.552.675-1.38.675-1.871,0-.552-.061-1.288-.614-1.839-.613-.645-1.595-.736-2.269-.736h-1.809v5.091Z"/>
</svg>